<?xml version="1.0" encoding="utf-8"?>
<!-- Generator: Adobe Illustrator 16.0.4, SVG Export Plug-In . SVG Version: 6.00 Build 0)  -->
<!DOCTYPE svg PUBLIC "-//W3C//DTD SVG 1.1//EN" "http://www.w3.org/Graphics/SVG/1.1/DTD/svg11.dtd">
<svg version="1.1" xmlns="http://www.w3.org/2000/svg" xmlns:xlink="http://www.w3.org/1999/xlink" x="0px" y="0px" width="160px"
	 height="160px" viewBox="0 0 160 160" enable-background="new 0 0 160 160" xml:space="preserve">
<g id="Layer_1">
	<rect fill="none" width="160" height="160"/>
</g>
<g id="Icon_Artwork">
	<g>
		<path fill="#000000" d="M80.318,91.104c0.291,0.153,0.61,0.229,0.93,0.229s0.639-0.076,0.93-0.229
			c9.589-5.036,29.39-21.681,29.39-40.982c0-9.812-7.983-17.795-17.795-17.795c-4.757,0-9.207,1.86-12.525,5.174
			c-3.318-3.313-7.769-5.174-12.526-5.174c-9.812,0-17.795,7.982-17.795,17.795C50.927,69.425,70.729,86.068,80.318,91.104z
			 M54.927,50.122c0-7.606,6.188-13.795,13.795-13.795c4.311,0,8.298,1.975,10.939,5.418c0.757,0.986,2.417,0.986,3.174,0
			c2.641-3.443,6.628-5.418,10.938-5.418c7.606,0,13.795,6.188,13.795,13.795c0,9.705-5.764,18.299-10.599,23.799
			c-5.141,5.849-11.405,10.668-15.722,13.132c-4.317-2.464-10.582-7.283-15.723-13.132C60.69,68.421,54.927,59.827,54.927,50.122z"
			/>
		<path fill="#000000" d="M126.594,99.455c-0.11-0.283-2.753-6.935-9.096-6.935c-1.138,0-2.319,0.225-3.512,0.668
			c-0.053,0.021-0.105,0.042-0.156,0.066l-19.344,9.13c0.018-1.287-0.36-2.664-1.368-4.265c-1.057-1.676-3.113-2.598-5.79-2.598
			c-2.304,0-5.048,0.681-7.725,1.918c-0.82,0.379-1.636,0.563-2.494,0.563c-1.65,0-3.417-0.669-5.462-1.444
			c-2.889-1.094-6.163-2.333-10.482-2.333c-1.732,0-3.528,0.209-5.339,0.622c-13.312,3.04-17.776,13.709-21.208,24.377
			c-0.223,0.693-0.052,1.453,0.447,1.983c6.849,7.276,16.218,10.669,16.614,10.81c0.22,0.078,0.445,0.116,0.667,0.116
			c0.749,0,1.462-0.425,1.806-1.132c0.028-0.059,2.89-5.837,7.737-5.939c1.221-0.025,3.002-0.019,5.091-0.007
			c1.275,0.006,2.666,0.013,4.117,0.013c13.401,0,19.521-0.646,21.826-2.302c3.423-2.455,32.573-20.713,32.867-20.896
			C126.603,101.362,126.939,100.349,126.594,99.455z M90.591,119.519c-0.985,0.707-5.167,1.551-19.494,1.551
			c-1.445,0-2.829-0.007-4.098-0.013c-2.135-0.01-3.944-0.019-5.194,0.007c-5.307,0.113-8.752,4.2-10.307,6.567
			c-2.633-1.145-8.184-3.889-12.699-8.326c3.137-9.517,7.079-18.081,17.917-20.556c1.54-0.352,2.995-0.522,4.449-0.522
			c3.587,0,6.372,1.055,9.065,2.074c2.312,0.876,4.497,1.703,6.879,1.703c1.45,0,2.814-0.306,4.171-0.933
			c2.163-0.999,4.31-1.549,6.047-1.549c1.2,0,2.122,0.28,2.406,0.729c1.056,1.678,0.957,2.46-0.069,4.568
			c-0.094,0.047-0.187,0.094-0.275,0.156c-1.961,1.396-12.189,4.799-16.214,4.079c-1.086-0.195-2.126,0.529-2.32,1.617
			c-0.194,1.087,0.53,2.126,1.617,2.32c0.557,0.1,1.183,0.146,1.859,0.146c5.717,0,15.073-3.263,17.377-4.902
			c0.118-0.084,0.223-0.18,0.317-0.283c0.027-0.012,0.057-0.012,0.083-0.024l23.347-11.019c0.718-0.259,1.404-0.39,2.042-0.39
			c2.226,0,3.75,1.673,4.589,2.95C115.866,103.372,93.683,117.301,90.591,119.519z"/>
	</g>
</g>
</svg>
