<?xml version="1.0" encoding="utf-8"?>
<!-- Generator: Adobe Illustrator 16.0.4, SVG Export Plug-In . SVG Version: 6.00 Build 0)  -->
<!DOCTYPE svg PUBLIC "-//W3C//DTD SVG 1.1//EN" "http://www.w3.org/Graphics/SVG/1.1/DTD/svg11.dtd">
<svg version="1.1" xmlns="http://www.w3.org/2000/svg" xmlns:xlink="http://www.w3.org/1999/xlink" x="0px" y="0px" width="160px"
	 height="160px" viewBox="0 0 160 160" enable-background="new 0 0 160 160" xml:space="preserve">
<g id="Layer_1">
	<rect fill="none" width="160" height="160"/>
</g>
<g id="Icon_Artwork">
	<g>
		<path fill="#000000" d="M62.968,83.557c-0.504,3.42,0.559,7.025,3.192,9.66c2.411,2.41,5.642,3.506,8.797,3.285
			c-0.386,2.309-0.979,4.666-1.808,6.842c-0.469,1.232-1.998,4.449-2.573,5.646h18.848c-0.576-1.197-2.104-4.414-2.574-5.646
			c-0.846-2.221-1.447-4.629-1.831-6.984c3.203,0.27,6.499-0.822,8.95-3.271c3.809-3.811,4.334-9.658,1.578-14.029
			c0.733-1.344,1.229-2.717,1.484-4.121c0.504-3.422-0.558-7.027-3.191-9.66c-3.809-3.809-9.657-4.334-14.029-1.576
			c-1.344-0.734-2.716-1.23-4.122-1.488c-3.419-0.502-7.028,0.561-9.661,3.193c-3.808,3.809-4.333,9.656-1.576,14.029
			C63.72,80.779,63.224,82.152,62.968,83.557z M85.25,106.752H74.75c1.946-2.867,2.941-8.854,3.249-10.891
			c0.758-0.271,1.493-0.629,2.189-1.068c0.586,0.32,1.179,0.596,1.776,0.826C82.225,97.371,83.22,103.762,85.25,106.752z
			 M65.623,71.256c1.219-2.119,3.05-3.506,5.409-4.137c2.365-0.635,4.626-0.352,6.746,0.881c2.782,1.615,4.438,4.166,6.993,6.24
			c0.372,0.303,0.819,0.619,1.307,0.676c0.542,0.062,1.136-0.197,1.61-0.432c0.856-0.424,1.573-0.879,2.408-1.367l-6.315-6.314
			c-1.22-1.219-1.834-1.824-3.18-2.646c0.201-0.066,0.405-0.129,0.614-0.186c2.374-0.637,4.648-0.326,6.776,0.898
			c2.12,1.221,3.506,3.051,4.138,5.41c0.634,2.365,0.351,4.627-0.88,6.746c-1.615,2.781-4.168,4.438-6.244,6.992
			c-0.301,0.371-0.617,0.818-0.674,1.307c-0.063,0.543,0.198,1.137,0.432,1.609c0.423,0.857,0.877,1.574,1.367,2.408l6.316-6.314
			c1.219-1.221,1.824-1.834,2.645-3.18c0.068,0.199,0.13,0.404,0.187,0.615c0.636,2.371,0.327,4.646-0.898,6.773
			c-1.22,2.121-3.05,3.506-5.41,4.139c-2.367,0.633-4.626,0.352-6.747-0.881c-2.781-1.615-4.437-4.168-6.992-6.242
			c-0.372-0.301-0.819-0.617-1.307-0.674c-0.542-0.066-1.135,0.195-1.61,0.432c-0.856,0.422-1.573,0.877-2.407,1.367l6.314,6.316
			c1.22,1.217,1.834,1.822,3.18,2.643c-0.201,0.068-0.406,0.131-0.614,0.188c-2.374,0.637-4.648,0.326-6.777-0.898
			c-2.119-1.221-3.504-3.051-4.137-5.41c-0.634-2.365-0.351-4.627,0.881-6.748c1.615-2.779,4.168-4.436,6.243-6.992
			c0.3-0.369,0.617-0.818,0.674-1.307c0.064-0.541-0.198-1.133-0.432-1.607c-0.423-0.859-0.877-1.574-1.367-2.408l-6.316,6.314
			c-1.219,1.221-1.825,1.834-2.645,3.18c-0.068-0.201-0.13-0.406-0.187-0.615C64.088,75.658,64.397,73.385,65.623,71.256z"/>
		<path fill="#000000" d="M120.64,50.647c-0.167-5.645-4.812-10.185-10.497-10.185H93.322v-3.13c0-3.793-3.086-6.878-6.879-6.878
			H73.556c-3.792,0-6.878,3.085-6.878,6.878v3.13H49.855c-5.79,0-10.5,4.71-10.5,10.5c0,1.104,0.896,2,2,2h3.653l8.504,70.318
			c0.417,3.312,3.345,5.908,6.666,5.908h39.645c3.321,0,6.249-2.596,6.667-5.918l8.503-70.309h3.653c0.007-0.001,0.013-0.001,0.02,0
			c1.104,0,2-0.896,2-2C120.665,50.855,120.657,50.751,120.64,50.647z M70.678,37.333c0-1.587,1.291-2.878,2.878-2.878h12.887
			c1.587,0,2.879,1.291,2.879,2.878v3.13H70.678V37.333z M102.52,122.781c-0.164,1.306-1.399,2.408-2.697,2.408H60.178
			c-1.298,0-2.533-1.103-2.696-2.398l-8.445-69.828h61.927L102.52,122.781z M43.67,48.963c0.845-2.608,3.298-4.5,6.185-4.5h60.288
			c2.888,0,5.341,1.892,6.187,4.5H43.67z"/>
	</g>
</g>
</svg>
