<svg width="56" height="64" viewBox="0 0 56 64" fill="none" xmlns="http://www.w3.org/2000/svg">
<path d="M6 1.5H50C52.4853 1.5 54.5 3.51472 54.5 6V42.7243C54.5 44.2555 53.7214 45.6816 52.4334 46.5096L30.4334 60.6525C28.9511 61.6054 27.0489 61.6054 25.5666 60.6525L3.56659 46.5096C2.27859 45.6816 1.5 44.2555 1.5 42.7243V6C1.5 3.51472 3.51472 1.5 6 1.5Z" fill="#F9FFF0" stroke="#B8EC51" stroke-width="3"/>
<path d="M21.9646 48.9999C19.8555 48.9999 20.1642 47.0933 21.289 46.4653C21.9646 46.1259 21.9709 45.9703 22.624 45.5856C22.8042 45.4725 23.6311 45.1754 23.8338 45.198C25.1409 44.8586 25.9057 44.6323 26.9866 44.7002C27.1218 44.7002 27.1893 44.7002 27.1668 44.4739C27.1218 43.795 27.2794 43.0934 27.1443 42.4371C26.9866 41.7809 27.3244 41.1698 27.1443 40.4909C27.0092 40.0157 27.2118 39.4499 27.3019 38.9294C27.4333 38.1375 27.7207 37.7983 28.7207 38.2505C28.9234 39.4047 28.7207 40.5588 28.7658 41.713C28.7883 42.4371 28.9009 43.2066 28.7432 43.9081C28.6081 44.5191 28.991 44.587 29.3062 44.5644C29.9368 44.5191 30.5449 44.7228 31.1079 44.8586C33.698 45.198 33.9454 46.058 35.1841 46.9858C35.657 47.3479 35.612 47.8684 35.5444 48.3663C35.5219 48.502 35.4093 48.6378 35.1841 48.6605C33.6076 48.7736 32.0312 48.7962 30.4548 48.7057C29.644 48.6605 28.8108 48.8189 28.0001 48.751C26.6939 48.6378 26.4471 48.8641 25.1409 48.751C24.9382 48.7284 23.8788 48.9547 23.4059 48.9773C22.933 48.9999 24.0736 48.9999 21.9646 48.9999Z" fill="black" fill-opacity="0.8"/>
<path d="M38.0981 24.1455C37.9173 24.4451 37.5987 25.2539 38.0981 25.494C39.0567 25.2586 39.9161 25.5154 40.8928 25.494C41.3993 25.494 42.6996 25.0433 42.6996 26.7169C42.6996 28.3906 42.5616 29.3206 42.1315 30.756C41.2015 32.2882 40.8928 32.2882 40.0843 32.5535C39.5116 32.7414 38.913 32.9216 38.3598 32.9216C36.8917 32.6697 37.438 34.3986 38.4072 34.3986C39.3763 34.3986 39.4664 34.3986 40.0843 34.1452C40.7022 33.8919 41.1205 33.8799 41.9506 33.3493C42.6991 32.8709 43.2585 31.7128 43.6626 30.2775C44.1341 28.603 44.1541 25.0998 43.4487 24.3292C42.7433 23.5587 41.7972 23.8186 40.8928 23.8186C40.0608 23.7972 38.8578 23.7174 38.0981 24.1455Z" fill="black" fill-opacity="0.8"/>
<path d="M18.19 24.1454C18.3709 24.4451 18.6894 25.2539 18.19 25.494C17.2314 25.2585 16.372 25.5154 15.3953 25.494C14.8889 25.494 13.5465 25.3906 13.5465 27.0642C13.5465 28.7379 13.7266 29.3206 14.1567 30.7559C15.0866 32.2881 15.3953 32.2881 16.2038 32.5534C16.7765 32.7413 17.3752 32.9216 17.9283 32.9216C19.3965 32.6697 19.801 34.3986 18.8318 34.3986C17.8627 34.3986 16.8217 34.3986 16.2038 34.1452C15.586 33.8918 15.1677 33.8799 14.3376 33.3493C13.589 32.8709 12.6922 31.2815 12.2881 29.8462C11.8166 28.1717 11.9201 25.5586 12.6255 24.7881C13.3309 24.0175 14.491 23.8186 15.3953 23.8186C16.2273 23.7972 17.4304 23.7173 18.19 24.1454Z" fill="black" fill-opacity="0.8"/>
<path d="M28.812 39.65C27.8033 39.205 26.5759 39.9642 25.6141 39.65C23.0017 39.65 21.0726 38.0767 19.9241 36.4431C19.0895 35.2743 18.7811 33.886 18.4076 32.5129C18.0923 31.2987 18.0247 30.7687 18.0247 28.6938C17.8896 28.3185 17.8446 27.8991 17.8671 27.5017C17.9346 26.707 17.7095 25.9969 17.8221 25.2022C17.9347 24.8711 17.7432 24.6008 17.822 24.1462C18.0247 22.9762 18.2274 21.8282 18.4076 20.6582C18.4526 20.4154 18.5427 20.305 18.7679 20.2388C19.2633 20.0622 19.7588 19.9297 20.2768 19.9076C21.8532 19.8193 23.4521 19.731 25.0286 19.731C28.1364 19.7752 31.2442 19.4661 34.3295 19.9076C35.2303 20.0401 36.1086 20.0401 37.0095 20.1063C37.3473 20.1284 37.5274 20.2388 37.6626 20.5257C38.2481 21.6737 38.3156 22.8658 38.0904 24.102C37.9778 24.4332 37.9103 25.272 38.0904 25.6253C37.9778 26.1551 38.0904 26.5161 38.0904 27.068C38.113 29.0327 38.3607 30.5923 38.0679 32.5129C37.8091 33.7815 37.2389 35.0632 36.5351 36.4431C35.3865 38.1208 34.7733 38.8218 30.4785 39.4954C29.9155 39.5837 29.3525 39.5837 28.812 39.65ZM34.1043 27.6562C34.2169 26.994 33.9016 26.4641 33.5638 26.0006C32.8207 24.963 31.8748 24.2566 30.456 24.3449C29.3975 24.4111 28.5193 24.7864 27.8211 25.5811C27.686 25.7577 27.5734 25.8239 27.3932 25.6253C26.9203 25.0734 26.2447 24.8305 25.6141 24.5215C24.7809 24.1241 23.6323 24.3449 23.0017 25.0071C22.1009 25.9564 21.8982 27.0823 21.8982 28.3847C21.9208 30.0184 22.8441 31.1221 23.79 32.2701C24.443 33.0869 25.3439 33.6167 26.2447 34.1465C26.9203 34.566 28.0463 34.4997 28.6769 34.0582C29.938 33.1973 31.2442 32.3805 32.3477 31.2987C33.3611 30.2612 33.9242 29.047 34.1043 27.6562Z" fill="url(#paint0_linear_1023_1244)"/>
<path d="M34.1045 27.6558C33.9244 29.0466 33.3839 30.2608 32.3479 31.2763C31.2444 32.358 29.9383 33.1748 28.6771 34.0357C28.0465 34.4773 26.9205 34.5435 26.2449 34.124C25.3666 33.5721 24.4658 33.0423 23.7902 32.2476C22.8668 31.0997 21.921 29.9959 21.8985 28.3623C21.8759 27.0819 22.1012 25.956 23.002 24.9847C23.61 24.3224 24.7811 24.1016 25.6143 24.499C26.2449 24.808 26.9205 25.0509 27.3934 25.6028C27.5736 25.8235 27.6862 25.7352 27.8213 25.5586C28.4969 24.7639 29.3752 24.3886 30.4562 24.3224C31.875 24.2341 32.8209 24.9405 33.564 25.9781C33.9018 26.4858 34.2171 27.0156 34.1045 27.6558ZM32.7083 27.0819C32.6632 26.243 32.0327 25.5365 31.2444 25.5586C30.0509 25.5807 29.105 26.1105 28.4744 27.126C28.3393 27.3247 28.1817 27.3909 27.9565 27.3468C27.5286 27.2364 27.1232 27.0598 26.898 26.7066C26.7178 26.4196 26.4701 26.1767 26.1999 26.0001C25.209 25.2937 24.2181 25.4041 23.7451 26.4858C23.4974 27.0598 23.2497 27.6558 23.2947 28.3843C23.3623 29.2894 23.565 30.1283 24.0604 30.8347C24.8486 31.9385 25.9071 32.7774 27.1457 33.3735C27.2358 33.4176 27.3034 33.4838 27.4385 33.3735C28.1366 32.8878 28.8798 32.4684 29.5104 31.8944C30.2986 31.1659 31.1093 30.4374 31.7849 29.5764C32.393 28.8038 32.7533 28.0311 32.7083 27.0819Z" fill="black" fill-opacity="0.8"/>
<path d="M0 6C0 2.68629 2.68629 0 6 0H50C53.3137 0 56 2.68629 56 6V14H0V6Z" fill="#B8EC51"/>
<path d="M14.7035 11C14.1933 11 13.9408 10.7153 13.9408 10.3071C13.9408 10.001 14.059 9.79688 14.3866 9.49609L16.6962 7.28857C17.6522 6.37012 17.8993 5.99414 17.8993 5.43555C17.8993 4.79639 17.4052 4.33984 16.7123 4.33984C16.0893 4.33984 15.6596 4.65137 15.3803 5.27441C15.1977 5.59668 15.0097 5.74707 14.6605 5.74707C14.2255 5.74707 13.9677 5.48926 13.9677 5.08643C13.9677 4.96289 13.9892 4.8501 14.0268 4.7373C14.2899 3.87793 15.2621 3.07764 16.7284 3.07764C18.372 3.07764 19.4784 4.00146 19.4784 5.3335C19.4784 6.27881 19.0165 6.86963 17.7489 8.06738L16.0731 9.67871V9.71094H18.995C19.414 9.71094 19.6664 9.96338 19.6664 10.3555C19.6664 10.7368 19.414 11 18.995 11H14.7035ZM24.2195 11.1719C22.2537 11.1719 21.056 9.61963 21.056 7.11133C21.056 4.6084 22.2645 3.07227 24.2195 3.07227C26.1746 3.07227 27.3777 4.60303 27.3777 7.10596C27.3777 9.60889 26.1854 11.1719 24.2195 11.1719ZM24.2195 9.87207C25.1756 9.87207 25.7288 8.88916 25.7288 7.11133C25.7288 5.34424 25.1702 4.37207 24.2195 4.37207C23.2742 4.37207 22.7049 5.34961 22.7049 7.11133C22.7049 8.88916 23.2635 9.87207 24.2195 9.87207ZM29.675 11C29.1647 11 28.9123 10.7153 28.9123 10.3071C28.9123 10.001 29.0305 9.79688 29.3581 9.49609L31.6677 7.28857C32.6237 6.37012 32.8708 5.99414 32.8708 5.43555C32.8708 4.79639 32.3767 4.33984 31.6838 4.33984C31.0607 4.33984 30.6311 4.65137 30.3518 5.27441C30.1691 5.59668 29.9812 5.74707 29.632 5.74707C29.197 5.74707 28.9392 5.48926 28.9392 5.08643C28.9392 4.96289 28.9606 4.8501 28.9982 4.7373C29.2614 3.87793 30.2336 3.07764 31.6999 3.07764C33.3435 3.07764 34.4499 4.00146 34.4499 5.3335C34.4499 6.27881 33.988 6.86963 32.7204 8.06738L31.0446 9.67871V9.71094H33.9665C34.3854 9.71094 34.6379 9.96338 34.6379 10.3555C34.6379 10.7368 34.3854 11 33.9665 11H29.675ZM40.4855 11.1128C40.0396 11.1128 39.7174 10.8389 39.7174 10.3232V9.57666H36.8277C36.2423 9.57666 35.8502 9.21143 35.8502 8.66895C35.8502 8.33594 35.9469 8.03516 36.1886 7.61084C36.7203 6.65479 37.4938 5.47314 38.337 4.22168C38.8741 3.3999 39.2662 3.13135 39.9215 3.13135C40.7433 3.13135 41.2589 3.57715 41.2589 4.30225V8.28223H41.6993C42.129 8.28223 42.3653 8.55078 42.3653 8.93213C42.3653 9.31348 42.1236 9.57666 41.6993 9.57666H41.2589V10.3232C41.2589 10.8389 40.9313 11.1128 40.4855 11.1128ZM39.7496 8.3252V4.42578H39.7174C38.6109 6.021 37.8966 7.11133 37.2682 8.28223V8.3252H39.7496Z" fill="#055C00"/>
<defs>
<linearGradient id="paint0_linear_1023_1244" x1="21.1682" y1="22.2432" x2="34.5654" y2="37.3876" gradientUnits="userSpaceOnUse">
<stop stop-color="#45B0EA"/>
<stop offset="0.5156" stop-color="#C6EC43"/>
<stop offset="1" stop-color="#FDF239"/>
</linearGradient>
</defs>
</svg>
